# xmcd
#
# Track frame offsets:
#	150
#	32312
#	90315
#	124200
#	153315
#	175917
#	202222
#
# Disc length: 3068 seconds
#
# Revision: 2
# Processed by: cddbd v1.5.2PL0 Copyright (c) Steve Scherf et al.
# Submitted via: audiograbber 1.83.01
#
DISCID=510bfa07
DTITLE=Various Artist - Giants of Jazz and Blues In Concert
DYEAR=1995
DGENRE=Blues
TTITLE0=The Dave Brubeck Quartet - Blue Rondo
TTITLE1=The Dave Brubeck Quartet - Jam Session
TTITLE2=Pat Metheny w The Heath Brother - Move The Groove
TTITLE3=The Dave Brubeck Quartet - Ol' Bill Basie
TTITLE4=B.B. King and his Orchestra - The Thrill is Gone
TTITLE5=B.B. King and his Orchestra - Guess Who
TTITLE6=B.B. King and his Orchestra - Payïn' the cost to be the Boss
EXTD=Most valuable
EXTT0=
EXTT1=
EXTT2=
EXTT3=
EXTT4=
EXTT5=
EXTT6=
PLAYORDER=
